{
	"asset":{
		"generator":"Khronos glTF Blender I/O v3.6.27",
		"version":"2.0"
	},
	"extensionsUsed":[
		"KHR_materials_specular",
		"KHR_materials_ior"
	],
	"scene":0,
	"scenes":[
		{
			"name":"Scene",
			"nodes":[
				0
			]
		}
	],
	"nodes":[
		{
			"mesh":0,
			"name":"MgSO4.mol",
			"rotation":[
				0.7071068286895752,
				0,
				0,
				0.7071068286895752
			]
		}
	],
	"materials":[
		{
			"doubleSided":true,
			"extensions":{
				"KHR_materials_specular":{
					"specularColorFactor":[
						0.020080160244135427,
						0.020080160244135427,
						0.020080160244135427
					]
				},
				"KHR_materials_ior":{
					"ior":0.0010000000474974513
				}
			},
			"name":"k8aff00",
			"pbrMetallicRoughness":{
				"baseColorFactor":[
					0.5429999828338623,
					1,
					0,
					1
				],
				"metallicFactor":0,
				"roughnessFactor":0.5962674021720886
			}
		},
		{
			"doubleSided":true,
			"extensions":{
				"KHR_materials_specular":{
					"specularColorFactor":[
						0.020080160244135427,
						0.020080160244135427,
						0.020080160244135427
					]
				},
				"KHR_materials_ior":{
					"ior":0.0010000000474974513
				}
			},
			"name":"kffff30",
			"pbrMetallicRoughness":{
				"baseColorFactor":[
					1,
					1,
					0.19099999964237213,
					1
				],
				"metallicFactor":0,
				"roughnessFactor":0.5962674021720886
			}
		},
		{
			"doubleSided":true,
			"extensions":{
				"KHR_materials_specular":{
					"specularColorFactor":[
						0.020080160244135427,
						0.020080160244135427,
						0.020080160244135427
					]
				},
				"KHR_materials_ior":{
					"ior":0.0010000000474974513
				}
			},
			"name":"kff0d0d",
			"pbrMetallicRoughness":{
				"baseColorFactor":[
					1,
					0.054999999701976776,
					0.054999999701976776,
					1
				],
				"metallicFactor":0,
				"roughnessFactor":0.5962674021720886
			}
		},
		{
			"doubleSided":true,
			"extensions":{
				"KHR_materials_specular":{
					"specularColorFactor":[
						0.020080160244135427,
						0.020080160244135427,
						0.020080160244135427
					]
				},
				"KHR_materials_ior":{
					"ior":0.0010000000474974513
				}
			},
			"name":"k808080",
			"pbrMetallicRoughness":{
				"baseColorFactor":[
					0.5040000081062317,
					0.5040000081062317,
					0.5040000081062317,
					1
				],
				"metallicFactor":0,
				"roughnessFactor":0.5962674021720886
			}
		}
	],
	"meshes":[
		{
			"name":"MgSO4.mol",
			"primitives":[
				{
					"attributes":{
						"POSITION":0,
						"NORMAL":1
					},
					"indices":2,
					"material":0
				},
				{
					"attributes":{
						"POSITION":3,
						"NORMAL":4
					},
					"indices":5,
					"material":1
				},
				{
					"attributes":{
						"POSITION":6,
						"NORMAL":7
					},
					"indices":8,
					"material":2
				},
				{
					"attributes":{
						"POSITION":9,
						"NORMAL":10
					},
					"indices":11,
					"material":3
				}
			]
		}
	],
	"accessors":[
		{
			"bufferView":0,
			"componentType":5126,
			"count":11310,
			"max":[
				5.614500045776367,
				6.938499927520752,
				0.4325000047683716
			],
			"min":[
				-0.4325000047683716,
				-0.4325000047683716,
				-8.32550048828125
			],
			"type":"VEC3"
		},
		{
			"bufferView":1,
			"componentType":5126,
			"count":11310,
			"type":"VEC3"
		},
		{
			"bufferView":2,
			"componentType":5123,
			"count":42240,
			"type":"SCALAR"
		},
		{
			"bufferView":3,
			"componentType":5126,
			"count":2053,
			"max":[
				3.0410001277923584,
				5.3294997215271,
				-0.5761000514030457
			],
			"min":[
				2.1410000324249268,
				1.1765000820159912,
				-7.31689977645874
			],
			"type":"VEC3"
		},
		{
			"bufferView":4,
			"componentType":5126,
			"count":2053,
			"type":"VEC3"
		},
		{
			"bufferView":5,
			"componentType":5123,
			"count":7680,
			"type":"SCALAR"
		},
		{
			"bufferView":6,
			"componentType":5126,
			"count":12349,
			"max":[
				4.266499996185303,
				6.49560022354126,
				0.14319999516010284
			],
			"min":[
				0.9155000448226929,
				0.010399997234344482,
				-8.036199569702148
			],
			"type":"VEC3"
		},
		{
			"bufferView":7,
			"componentType":5126,
			"count":12349,
			"type":"VEC3"
		},
		{
			"bufferView":8,
			"componentType":5123,
			"count":46080,
			"type":"SCALAR"
		},
		{
			"bufferView":9,
			"componentType":5126,
			"count":60762,
			"max":[
				5.2829999923706055,
				6.60699987411499,
				0.10100000351667404
			],
			"min":[
				-0.10100000351667404,
				-0.10100000351667404,
				-7.99399995803833
			],
			"type":"VEC3"
		},
		{
			"bufferView":10,
			"componentType":5126,
			"count":60762,
			"type":"VEC3"
		},
		{
			"bufferView":11,
			"componentType":5123,
			"count":221088,
			"type":"SCALAR"
		}
	],
	"bufferViews":[
		{
			"buffer":0,
			"byteLength":135720,
			"byteOffset":0,
			"target":34962
		},
		{
			"buffer":0,
			"byteLength":135720,
			"byteOffset":135720,
			"target":34962
		},
		{
			"buffer":0,
			"byteLength":84480,
			"byteOffset":271440,
			"target":34963
		},
		{
			"buffer":0,
			"byteLength":24636,
			"byteOffset":355920,
			"target":34962
		},
		{
			"buffer":0,
			"byteLength":24636,
			"byteOffset":380556,
			"target":34962
		},
		{
			"buffer":0,
			"byteLength":15360,
			"byteOffset":405192,
			"target":34963
		},
		{
			"buffer":0,
			"byteLength":148188,
			"byteOffset":420552,
			"target":34962
		},
		{
			"buffer":0,
			"byteLength":148188,
			"byteOffset":568740,
			"target":34962
		},
		{
			"buffer":0,
			"byteLength":92160,
			"byteOffset":716928,
			"target":34963
		},
		{
			"buffer":0,
			"byteLength":729144,
			"byteOffset":809088,
			"target":34962
		},
		{
			"buffer":0,
			"byteLength":729144,
			"byteOffset":1538232,
			"target":34962
		},
		{
			"buffer":0,
			"byteLength":442176,
			"byteOffset":2267376,
			"target":34963
		}
	],
	"buffers":[
		{
			"byteLength":2709552,
			"uri":"data:application/octet-stream;base64,"
		}
	]
}
